<svg class="canvas" viewBox="0 0 1920 1080" preserveAspectRatio="xMaxYMid slice"
  xmlns="http://www.w3.org/2000/svg" version="1.1" xmlns:xlink="http://www.w3.org/1999/xlink"
  xmlns:svgjs="http://svgjs.dev/svgjs">
  <rect width="1920" height="1080" fill="hsl(165, 65%, 15%)"></rect>
  <defs>
    <linearGradient x1="0.5" y1="0" x2="0" y2="1" id="SvgjsLinearGradient1217">
      <stop stop-color="#28548a" offset="0"></stop>
      <stop stop-color="#0d0614" offset="0.1"></stop>
    </linearGradient>
    <linearGradient x1="0.5" y1="0" x2="0" y2="1" id="SvgjsLinearGradient1218">
      <stop stop-color="#28548a" offset="0"></stop>
      <stop stop-color="#0d0614" offset="0.22857142857142856"></stop>
    </linearGradient>
    <linearGradient x1="0.5" y1="0" x2="0" y2="1" id="SvgjsLinearGradient1219">
      <stop stop-color="#287c8a" offset="0"></stop>
      <stop stop-color="#080614" offset="0.3571428571428571"></stop>
    </linearGradient>
    <linearGradient x1="0.5" y1="0" x2="0" y2="1" id="SvgjsLinearGradient1220">
      <stop stop-color="#c0e0f2" offset="0"></stop>
      <stop stop-color="#7642d7" offset="0.48571428571428565"></stop>
    </linearGradient>
    <linearGradient x1="0.5" y1="0" x2="0" y2="1" id="SvgjsLinearGradient1221">
      <stop stop-color="#c0eaf2" offset="0"></stop>
      <stop stop-color="#5842d7" offset="0.6142857142857142"></stop>
    </linearGradient>
    <linearGradient x1="0.5" y1="0" x2="0" y2="1" id="SvgjsLinearGradient1222">
      <stop stop-color="#c0f2ef" offset="0"></stop>
      <stop stop-color="#4249d7" offset="0.7428571428571429"></stop>
    </linearGradient>
    <linearGradient x1="0.5" y1="0" x2="0" y2="1" id="SvgjsLinearGradient1223">
      <stop stop-color="#c0f2ef" offset="0"></stop>
      <stop stop-color="#4249d7" offset="0.8714285714285713"></stop>
    </linearGradient>
  </defs>
  <path
    d="M0,-561.4950824701206C61.00652226900198,-547.8567079763224,250.64496665458353,-513.3542287582446,366.03913361401186,-479.6648355073311C481.4333005734402,-445.9754422564176,598.7761923980186,-385.9190467135523,692.3650017565699,-359.3587229646395C785.9538111151212,-332.79839921572676,824.6602849979556,-338.15043420613364,927.5719897653199,-320.3028930138544C1030.4836945326842,-302.4553518215751,1193.0798638175781,-283.6873386060097,1309.8352303607558,-252.27347581096404C1426.5905969039334,-220.85961301591843,1526.410060751178,-170.2827818003879,1628.1041890243853,-131.81971624358067C1729.7983172975926,-93.35665068677343,1871.350698170731,-39.88252143236392,1920,-21.495082470120575L 1920 1080 L 0 1080 Z"
    fill="url(&quot;#SvgjsLinearGradient1217&quot;)"></path>
  <path
    d="M0,-373.8177335350201C56.74877132643934,-347.6637602049101,214.1012204945435,-252.58891316603038,340.49262795863604,-216.8938935543601C466.8840354227286,-181.1988739426898,623.4702512535921,-183.57797109834652,758.3484447845552,-159.64761586499833C893.2266383155184,-135.71726063165013,1020.7347064955004,-109.75425846841397,1149.7617891444147,-73.31176215427092C1278.788871793329,-36.86926584012788,1404.1379055354435,16.710738202365754,1532.510940678041,59.00736201985993C1660.8839758206384,101.3039858373541,1855.4184901130068,160.22454429555512,1920,180.46798075069415L 1920 1080 L 0 1080 Z"
    fill="url(&quot;#SvgjsLinearGradient1218&quot;)"></path>
  <path
    d="M0,-314.3358174237513C65.97502651582184,-294.44108873691727,268.1477447278505,-233.81143208126116,395.85015909493103,-194.9674453027473C523.5525734620115,-156.12345852423346,634.6740302844701,-121.95600352696175,766.2144862024829,-81.27189675266817C897.7549421204958,-40.58778997837458,1056.9775777747489,17.115455094585535,1185.0928946030083,49.137195343014255C1313.2082114312677,81.15893559144297,1412.4218696058747,76.67547543712695,1534.90638717204,110.85854473790414C1657.3909047382053,145.04161403868133,1855.81773119534,230.33943341271512,1920,254.23561114767733L 1920 1080 L 0 1080 Z"
    fill="url(&quot;#SvgjsLinearGradient1219&quot;)"></path>
  <path
    d="M0,-173.70384192694624C70.30588777494417,-146.67762004929068,300.6241983310653,-44.12217022225774,421.835326649665,-11.546510661012803C543.0464549682647,21.029148900232137,599.1235683217886,-4.560120844479325,727.266769911598,21.750115440523395C855.4099715014073,48.06035172552612,1057.1066743675042,96.15025710724822,1190.694536188521,146.31490704900352C1324.2823980095377,196.47955699075882,1407.2430302024525,278.93161611085634,1528.793940837699,322.7380150910552C1650.3448514729455,366.5444140712541,1854.7989901396165,394.75075329033973,1920,409.1533009301966L 1920 1080 L 0 1080 Z"
    fill="url(&quot;#SvgjsLinearGradient1220&quot;)"></path>
  <path
    d="M0,-47.89656256138208C70.39690419623453,-36.40565847561582,291.8115787492969,-14.017993510447589,422.3814251774072,21.048861953215464C552.9512716055175,56.11571741687852,653.7598839814743,116.62175551673815,783.4190785686619,162.50457022059624C913.0782731558495,208.38738492445432,1073.3826990698462,259.2544424798513,1200.3365927005327,296.34575017636394C1327.2904863312192,333.43705787287655,1425.198539136203,342.9023256654868,1545.1424403527808,385.052416399672C1665.0863415693586,427.2025071338572,1857.5237400587969,521.8806482178413,1920,549.2462945814751L 1920 1080 L 0 1080 Z"
    fill="url(&quot;#SvgjsLinearGradient1221&quot;)"></path>
  <path
    d="M0,127.12822621252522C37.75083377166633,143.86847319445678,142.4972470564328,211.62044731946276,226.505002629998,227.56970810411462C310.5127582035632,243.5189688887665,427.81355881152774,205.5221790619255,504.0465334413911,222.82379092043635C580.2795080712544,240.1254027789472,611.5587422611827,306.1492686727102,683.9028504091782,331.3793792551798C756.2469585571737,356.6094898376494,860.31014198289,337.9746648187101,938.1111823293637,374.20445441525396C1015.9122226758375,410.43424401179783,1060.5606274803292,504.80357880035996,1150.7090924880206,548.758116834443C1240.857557495712,592.712654868526,1389.684851353769,617.044218629038,1479.0019723755122,637.931682619752C1568.3190933972553,658.819146610466,1613.1121473477308,657.3120482751694,1686.6118186184788,674.0829007787269C1760.1114898892267,690.8537532822843,1881.1019697697466,727.811148164035,1920,738.5567976410966L 1920 1080 L 0 1080 Z"
    fill="url(&quot;#SvgjsLinearGradient1222&quot;)"></path>
  <path
    d="M0,234.56546724010468C84.6712625215048,262.4951629661282,346.41526580843345,351.73448054463705,508.02757512902883,402.14364159624563C669.6398844496242,452.5528026478542,817.7115054857603,490.05006188884977,969.6738559235722,537.0204335497563C1121.636206361384,583.9908052106628,1261.4139870764955,630.089318327579,1419.8016777559,683.9658715616847C1578.1893684353047,737.8424247957904,1836.6336129593167,830.8941060556061,1920,860.2797529543905L 1920 1080 L 0 1080 Z"
    fill="url(&quot;#SvgjsLinearGradient1223&quot;)"></path>
</svg>
